# xmcd
#
# Track frame offsets:
#	150
#	13293
#	27662
#	40407
#	53132
#	66559
#	79740
#	92801
#	106540
#	120571
#	132176
#	145174
#	157474
#	170497
#	182811
#	196021
#	208108
#	220703
#	233105
#	244625
#	257188
#	269194
#	282269
#	293936
#	305409
#
# Disc length: 4249 seconds
#
# Revision: 1
# Processed by: cddbd v1.5.2PL0 Copyright (c) Steve Scherf et al.
# Submitted via: audiograbber 1.83.01
#
DISCID=83109719
DTITLE=Bob Wills and his Texas Playboys - The King of Western Swing - Chicago, 
DTITLE=Dallas - 1936, 1937
DYEAR=2007
DGENRE=Swing
TTITLE0=No Matter How She Does It
TTITLE1=Bluin' the Blues
TTITLE2=Steel Guitar Song
TTITLE3=Get Along Home Cindy
TTITLE4=Trouble in Mind
TTITLE5=What's the Matter With the Mill
TTITLE6=Sugar Blues
TTITLE7=Basin Street Blues
TTITLE8=Red Hot Gal of Mine
TTITLE9=Too Busy
TTITLE10=Back Home Again in Indiana
TTITLE11=Fan It
TTITLE12=Mean Mama Blues
TTITLE13=Bring It on Down to My Heart
TTITLE14=Right or Wrong
TTITLE15=Swing Blues #1
TTITLE16=Swing Blues #2
TTITLE17=White Heat
TTITLE18=Dedicated to You
TTITLE19=Playboy Stomp
TTITLE20=Steel Guitar Stomp
TTITLE21=Rosetta
TTITLE22=Bleeding Hearted Blues
TTITLE23=Tie Me to Your Apron Strings Again
TTITLE24=Never No More Hard Times Blues
EXTD=
EXTT0=
EXTT1=
EXTT2=
EXTT3=
EXTT4=
EXTT5=
EXTT6=
EXTT7=
EXTT8=
EXTT9=
EXTT10=
EXTT11=
EXTT12=
EXTT13=
EXTT14=
EXTT15=
EXTT16=
EXTT17=
EXTT18=
EXTT19=
EXTT20=
EXTT21=
EXTT22=
EXTT23=
EXTT24=
PLAYORDER=
